# xmcd
#
# Track frame offsets:
#	150
#	15375
#	32520
#	52103
#	68402
#	82301
#	101253
#	114884
#	130511
#	146638
#	166946
#	185306
#	210033
#	225392
#
# Disc length: 3185 seconds
#
# Revision: 2
# Processed by: cddbd v1.4PL0 Copyright (c) Steve Scherf et al.
# Submitted via: AudioConverter v4.05 Copyright (c) Dennis Rebentrost
#
DISCID=a00c6f0e
DTITLE=Flemming Bamse J_rgensen - Always On My Mind
DYEAR=1900
DGENRE=
TTITLE0=Brown Eyed Girl
TTITLE1=To Love Somebody
TTITLE2=Always On My Mind
TTITLE3=Woman
TTITLE4=My Girl
TTITLE5=Welcome
TTITLE6=If Not For You
TTITLE7=A Wedding Song
TTITLE8=Catch The Wind
TTITLE9=A Salty Dog
TTITLE10=Suzanne
TTITLE11=Like A Rock
TTITLE12=Wonderful World
TTITLE13=Crazy
EXTD=
EXTT0=
EXTT1=
EXTT2=
EXTT3=
EXTT4=
EXTT5=
EXTT6=
EXTT7=
EXTT8=
EXTT9=
EXTT10=
EXTT11=
EXTT12=
EXTT13=
PLAYORDER=
